<svg width="10" height="17" viewBox="0 0 10 17" fill="none" xmlns="http://www.w3.org/2000/svg">
<path d="M5 0.4375C2.34969 0.4375 0.1875 2.59969 0.1875 5.25C0.1875 7.66725 1.98669 9.66238 4.3125 9.99788V16.25H5.6875V9.99788C8.01331 9.66238 9.8125 7.66725 9.8125 5.25C9.8125 2.59969 7.65031 0.4375 5 0.4375ZM5 1.8125C6.90644 1.8125 8.4375 3.34356 8.4375 5.25C8.4375 7.15644 6.90644 8.6875 5 8.6875C3.09356 8.6875 1.5625 7.15644 1.5625 5.25C1.5625 3.34356 3.09356 1.8125 5 1.8125ZM5 2.5C3.4875 2.5 2.25 3.7375 2.25 5.25H3.625C3.625 4.48206 4.23206 3.875 5 3.875V2.5Z" fill="white"/>
</svg>
