<svg width="18" height="18" viewBox="0 0 18 18" fill="none" xmlns="http://www.w3.org/2000/svg">
<path d="M15.4 17.75H15.17C12.5785 17.4692 10.0887 16.5856 7.89997 15.17C5.86656 13.8741 4.13985 12.1509 2.83997 10.12C1.42145 7.92534 0.537764 5.4284 0.259974 2.83001C0.228127 2.52011 0.25957 2.20696 0.352395 1.90958C0.44522 1.6122 0.597493 1.33677 0.799974 1.10001C0.996912 0.86008 1.23999 0.662109 1.51483 0.517823C1.78966 0.373536 2.09065 0.285868 2.39997 0.26001H4.99997C5.56309 0.260578 6.10744 0.462477 6.53473 0.829248C6.96201 1.19602 7.24408 1.70349 7.32997 2.26001C7.42501 2.97487 7.60287 3.67625 7.85997 4.35001C8.01641 4.77339 8.0487 5.23264 7.95304 5.67375C7.85738 6.11485 7.63775 6.51947 7.31997 6.84001L6.70997 7.45001C7.67039 8.96621 8.95868 10.2477 10.48 11.2L11.09 10.6C11.4105 10.2822 11.8151 10.0626 12.2562 9.96694C12.6973 9.87128 13.1566 9.90357 13.58 10.06C14.2545 10.3146 14.9556 10.4924 15.67 10.59C16.236 10.6751 16.7515 10.9638 17.1198 11.402C17.488 11.8403 17.6836 12.3978 17.67 12.97V15.37C17.67 15.9942 17.4227 16.593 16.9823 17.0353C16.5419 17.4776 15.9442 17.7274 15.32 17.73L15.4 17.75ZM4.99997 1.75001H2.60997C2.49262 1.75777 2.37806 1.78924 2.27322 1.84252C2.16837 1.8958 2.07542 1.96979 1.99997 2.06001C1.92655 2.14452 1.87097 2.24302 1.8366 2.34957C1.80223 2.45612 1.78977 2.56852 1.79997 2.68001C2.04355 5.03654 2.8346 7.30352 4.10997 9.30001C5.28661 11.1467 6.85329 12.7134 8.69997 13.89C10.6972 15.1798 12.9669 15.9878 15.33 16.25C15.4528 16.2563 15.5756 16.2374 15.6909 16.1944C15.8061 16.1514 15.9113 16.0853 16 16C16.1592 15.8368 16.2488 15.6181 16.25 15.39V13C16.2545 12.7896 16.1816 12.5848 16.0453 12.4244C15.9089 12.2641 15.7184 12.1593 15.51 12.13C14.6838 12.0191 13.8723 11.8179 13.09 11.53C12.9358 11.4724 12.7685 11.4596 12.6075 11.4933C12.4464 11.5269 12.2982 11.6055 12.18 11.72L11.18 12.72C11.0629 12.8342 10.912 12.9076 10.7499 12.9292C10.5877 12.9508 10.4229 12.9195 10.28 12.84C8.14615 11.6342 6.37994 9.87146 5.16997 7.74001C5.08715 7.59798 5.05399 7.43241 5.07572 7.26944C5.09745 7.10647 5.17283 6.95538 5.28997 6.84001L6.28997 5.84001C6.40465 5.72403 6.48354 5.57751 6.51723 5.41793C6.55092 5.25835 6.53799 5.09244 6.47997 4.94001C6.19132 4.15794 5.9901 3.34634 5.87997 2.52001C5.85516 2.30528 5.7513 2.10747 5.58862 1.96513C5.42594 1.82278 5.2161 1.7461 4.99997 1.75001Z" fill="white"/>
</svg>
